<svg xmlns="http://www.w3.org/2000/svg" width="114" height="48.13" viewBox="0 0 114 48.13">
	<style type="text/css">
		.st1{fill:#1a150f;}
		.st0{fill:#1a150f;fill-rule:evenodd;}
	</style>
	<path class="st0" d="M29.62,18.72C29.25,18.77 28.88,18.79 28.52,18.86C27.99,18.96 27.58,19.21 27.29,19.7C26.81,20.5 26.36,21.31 26.04,22.18C25.97,22.36 26.11,22.53 26.29,22.51C26.9,22.43 27.51,22.34 28.13,22.28C28.44,22.24 28.67,22.15 28.72,21.81C28.72,21.79 28.73,21.77 28.74,21.76C29.18,20.95 29.45,20.07 29.72,19.19C29.75,19.09 29.76,18.99 29.78,18.89C29.8,18.77 29.75,18.71 29.62,18.72M18.87,14.51C18.86,14.5 18.85,14.49 18.84,14.48C18.8,14.51 18.75,14.53 18.71,14.56C18.36,14.79 18.03,15.04 17.67,15.24C15.68,16.32 13.68,17.41 11.68,18.47C10.78,18.94 9.91,19.46 9.14,20.13C8.94,20.3 8.78,20.5 8.85,20.77C8.95,21.1 9.09,21.43 9.5,21.5C9.57,21.51 9.64,21.55 9.71,21.56C10.4,21.72 11.09,21.93 11.79,22.04C12.86,22.19 13.94,22.07 15.01,21.96C15.18,21.94 15.28,21.87 15.35,21.72C15.66,21.04 15.98,20.37 16.31,19.7C17.14,18.04 17.97,16.38 18.8,14.71C18.83,14.65 18.85,14.57 18.87,14.51M14.93,22.59C14.58,22.64 14.26,22.68 13.94,22.73C12.51,22.95 11.07,22.94 9.64,22.76C8.81,22.65 8.03,22.37 7.37,21.82C7.23,21.71 7.1,21.57 6.98,21.43C6.68,21.06 6.66,20.69 6.98,20.34C7.23,20.06 7.52,19.79 7.85,19.59C8.93,18.95 10.03,18.34 11.13,17.73C13.34,16.5 15.57,15.31 17.68,13.9C18.46,13.38 19.21,12.79 19.97,12.23C20.08,12.15 20.18,12.04 20.26,11.93C20.34,11.81 20.44,11.76 20.56,11.74C21.04,11.68 21.51,11.62 21.98,11.56C22.22,11.53 22.34,11.63 22.39,11.88C22.44,12.11 22.38,12.33 22.27,12.53C21.72,13.57 21.18,14.6 20.62,15.63C19.62,17.44 18.76,19.31 17.87,21.17C17.86,21.19 17.86,21.22 17.83,21.28C17.92,21.25 17.99,21.23 18.05,21.21C19.41,20.72 20.73,20.15 22.01,19.48C23.13,18.89 24.22,18.26 25.22,17.47C25.74,17.06 26.26,16.65 26.73,16.19C27.3,15.65 27.81,15.05 28.18,14.34C28.89,12.94 28.43,11.31 27.07,10.51C26.28,10.04 25.49,9.54 24.59,9.3C22.84,8.82 21.07,8.42 19.26,8.28C17.77,8.16 16.28,8.18 14.8,8.34C13.64,8.47 12.49,8.69 11.35,8.96C9.78,9.33 8.26,9.84 6.79,10.51C5.65,11.03 4.58,11.68 3.64,12.51C3.18,12.91 2.79,13.41 2.43,13.91C2.07,14.43 2.01,15.04 2.23,15.65C2.85,17.34 4.03,18.49 5.64,19.24C5.84,19.33 6.03,19.43 6.21,19.55C6.39,19.68 6.37,19.86 6.18,19.95C5.79,20.13 5.4,20.29 5,20.44C4.91,20.47 4.78,20.47 4.7,20.42C3.89,19.98 3.04,19.59 2.3,19.05C1.26,18.27 0.51,17.22 0.1,15.96C-0.12,15.28 0.04,14.64 0.36,14.03C0.6,13.57 0.96,13.2 1.33,12.84C2.44,11.78 3.77,11.07 5.12,10.38C6.38,9.74 7.71,9.32 9.04,8.9C10.86,8.34 12.71,7.96 14.59,7.69C15.87,7.5 17.16,7.46 18.45,7.43C21.24,7.35 23.96,7.78 26.59,8.66C27.4,8.94 28.17,9.34 28.9,9.78C29.74,10.28 30.39,11 30.69,11.96C30.83,12.39 30.86,12.82 30.73,13.27C30.51,14.08 30.09,14.77 29.64,15.46C29.55,15.59 29.42,15.69 29.3,15.8C28.99,16.08 28.68,16.35 28.37,16.63C27.7,17.25 26.96,17.76 26.18,18.23C25.89,18.4 25.64,18.62 25.36,18.78C24.48,19.25 23.59,19.7 22.71,20.17C21.5,20.81 20.18,21.16 18.88,21.57C18.48,21.69 18.08,21.82 17.68,21.93C17.53,21.97 17.45,22.05 17.38,22.19C15.43,26.3 13.47,30.4 11.5,34.51C11.39,34.76 11.24,34.99 11.08,35.22C10.98,35.35 10.84,35.46 10.7,35.54C10.38,35.73 10.05,35.89 9.72,36.07C9.5,36.19 9.26,36.21 9.02,36.18C8.76,36.15 8.55,35.73 8.67,35.49C10.73,31.25 12.8,27.01 14.86,22.77C14.89,22.72 14.9,22.67 14.93,22.59M101.52,25.59C101.54,25.6 101.55,25.62 101.57,25.63C102.2,25.43 102.83,25.23 103.47,25.03C104.81,24.6 106.16,24.17 107.52,23.77C107.82,23.68 108.03,23.54 108.16,23.26C108.17,23.24 108.19,23.22 108.2,23.2C108.47,22.64 108.72,22.09 108.43,21.45C108.31,21.19 108.04,20.98 107.79,21.02C106.91,21.18 106.08,21.5 105.31,21.94C104.05,22.67 102.95,23.59 102.08,24.76C101.88,25.03 101.71,25.31 101.52,25.59M49.62,25.48C49.64,25.49 49.65,25.5 49.66,25.51C49.7,25.5 49.74,25.49 49.78,25.48C50.55,25.22 51.32,24.96 52.09,24.71C53.28,24.32 54.48,23.94 55.68,23.55C55.74,23.53 55.8,23.48 55.83,23.43C56.23,22.74 56.45,22.03 56.02,21.26C55.87,21.01 55.56,20.79 55.35,20.84C54.51,21 53.73,21.32 53.01,21.79C51.85,22.55 50.88,23.49 50.12,24.65C49.94,24.92 49.79,25.2 49.62,25.48M81.56,27.59C81.55,27.58 81.54,27.57 81.54,27.56C81.08,27.64 80.62,27.71 80.16,27.79C79.43,27.92 78.71,28.07 77.98,28.16C76.91,28.3 75.84,28.42 74.76,28.49C73.57,28.57 72.38,28.6 71.18,28.6C70.39,28.6 69.59,28.52 68.8,28.48C67.54,28.41 66.29,28.25 65.07,27.92C64.05,27.64 63.05,27.29 62.15,26.72C62.08,26.68 62.01,26.65 61.92,26.6C61.89,26.68 61.85,26.73 61.84,26.8C61.78,27.17 61.7,27.54 61.69,27.92C61.65,28.82 61.83,29.68 62.31,30.46C62.55,30.86 62.82,31.25 63.12,31.6C63.68,32.26 64.36,32.78 65.17,33.08C66.22,33.48 67.3,33.64 68.42,33.58C70.33,33.48 72.17,33.08 73.94,32.38C75.31,31.85 76.63,31.22 77.9,30.46C79.11,29.73 80.24,28.89 81.25,27.9C81.35,27.8 81.45,27.69 81.56,27.59M71.11,28.1C71.8,28.07 72.49,28.04 73.18,27.98C74.85,27.84 76.51,27.63 78.15,27.31C78.67,27.21 79.19,27.09 79.72,26.97C79.94,26.92 80.16,26.83 80.38,26.76C81.15,26.55 81.92,26.34 82.69,26.12C82.79,26.1 82.89,26.03 82.95,25.95C83.63,24.97 84.22,23.94 84.56,22.78C84.88,21.73 85.05,20.65 85.11,19.56C85.15,18.85 85.16,18.14 85.02,17.43C84.95,17.13 84.95,16.81 84.87,16.51C84.77,16.16 84.64,15.82 84.49,15.49C84.29,15.05 84.09,14.6 83.81,14.21C83.4,13.63 82.87,13.14 82.28,12.73C81.8,12.4 81.29,12.12 80.72,12.05C79.49,11.88 78.26,11.9 77.04,12.04C76.27,12.12 75.5,12.28 74.75,12.45C74.21,12.57 73.68,12.75 73.16,12.94C72.57,13.14 71.98,13.33 71.43,13.64C70.65,14.08 69.84,14.45 69.07,14.9C68.58,15.18 68.14,15.53 67.68,15.86C67.24,16.19 66.8,16.52 66.38,16.88C65.74,17.43 65.13,18.01 64.56,18.63C64.01,19.24 63.47,19.85 63.02,20.54C62.42,21.48 61.99,22.49 61.99,23.63C61.99,24.18 62.16,24.67 62.46,25.12C62.82,25.64 63.31,26.03 63.83,26.38C64.73,26.98 65.74,27.34 66.78,27.6C68.2,27.96 69.64,28.13 71.11,28.1M43.31,24.91C43.22,24.95 43.14,24.98 43.07,25.01C42.31,25.37 41.58,25.77 40.8,26.08C39.49,26.6 38.25,27.24 37.05,27.96C36.67,28.18 36.24,28.21 35.83,28.32C35.56,28.39 35.3,28.44 35.04,28.5C34.78,28.57 34.73,28.54 34.52,28.24C34.41,28.09 34.43,27.95 34.54,27.8C34.97,27.21 35.4,26.63 35.83,26.04C35.87,25.98 35.91,25.91 35.93,25.81C35.83,25.86 35.72,25.9 35.62,25.95C34.56,26.52 33.49,27.1 32.42,27.67C32.38,27.69 32.33,27.71 32.3,27.75C32.14,27.99 31.89,28.04 31.64,28.1C31.16,28.21 30.68,28.33 30.21,28.45C30.03,28.5 29.91,28.42 29.81,28.31C29.68,28.15 29.55,27.98 29.65,27.77C29.79,27.49 29.94,27.2 30.11,26.94C30.44,26.46 30.78,26 31.11,25.53C31.16,25.47 31.18,25.4 31.22,25.34C31.21,25.33 31.2,25.31 31.18,25.3C31.14,25.33 31.08,25.35 31.03,25.37C29.74,26.02 28.45,26.67 27.16,27.33C26.99,27.41 26.84,27.53 26.69,27.66C26.42,27.9 26.09,27.99 25.75,28.08C25.3,28.19 24.86,28.31 24.41,28.41C24.34,28.43 24.24,28.4 24.18,28.37C24.09,28.31 24.02,28.23 23.95,28.16C23.82,28.04 23.8,27.89 23.89,27.74C24.11,27.33 24.34,26.91 24.56,26.5C24.62,26.39 24.67,26.28 24.7,26.14C24.63,26.16 24.57,26.18 24.51,26.22C23.55,26.74 22.56,27.25 21.61,27.82C20.91,28.23 20.18,28.55 19.37,28.7C19.13,28.75 18.9,28.8 18.67,28.84C18.48,28.87 18.11,28.57 18.12,28.39C18.12,28.32 18.19,28.24 18.24,28.18C19.35,27.02 20.45,25.85 21.55,24.69C21.6,24.63 21.65,24.57 21.72,24.49C21.64,24.48 21.6,24.47 21.57,24.48C21.1,24.54 20.63,24.6 20.16,24.67C19.85,24.71 19.78,24.81 19.7,25.11C19.59,25.58 19.34,25.96 18.86,26.15C18.53,26.28 18.19,26.41 17.86,26.54C17.46,26.7 17.15,26.53 17.14,26.11C17.13,25.79 17.23,25.46 17.31,25.14C17.38,24.82 17.49,24.5 17.56,24.17C17.6,24.02 17.67,23.92 17.83,23.9C18.4,23.8 18.97,23.7 19.55,23.63C19.76,23.6 19.98,23.65 20.18,23.71C20.52,23.82 20.86,23.81 21.2,23.76C22.07,23.64 22.95,23.52 23.82,23.4C23.99,23.37 24.15,23.35 24.32,23.36C24.44,23.37 24.58,23.42 24.67,23.5C24.84,23.63 24.83,23.72 24.69,23.88C24.3,24.33 23.9,24.78 23.51,25.23C23.47,25.28 23.43,25.34 23.37,25.43C23.46,25.4 23.5,25.4 23.53,25.38C24.3,25.02 25.02,24.59 25.71,24.09C25.8,24.03 25.91,23.99 26.02,23.97C26.57,23.89 27.13,23.81 27.68,23.74C28.06,23.69 28.32,24 28.17,24.34C27.97,24.78 27.75,25.2 27.54,25.62C27.51,25.69 27.47,25.76 27.42,25.87C27.51,25.84 27.56,25.83 27.6,25.81C29.09,25.11 30.57,24.4 32.06,23.71C32.19,23.64 32.34,23.61 32.49,23.6C33.02,23.55 33.54,23.5 34.07,23.46C34.44,23.44 34.62,23.77 34.42,24.06C34.1,24.54 33.81,25.04 33.51,25.53C33.46,25.61 33.41,25.69 33.39,25.8C33.46,25.78 33.53,25.76 33.6,25.73C34.65,25.18 35.73,24.65 36.76,24.06C37.11,23.85 37.45,23.78 37.82,23.75C38.18,23.73 38.54,23.68 38.9,23.67C39.01,23.66 39.14,23.69 39.24,23.75C39.42,23.84 39.45,23.99 39.35,24.17C39.33,24.19 39.31,24.22 39.31,24.24C39.11,24.83 38.75,25.3 38.38,25.78C38.31,25.87 38.26,25.97 38.2,26.07C38.21,26.08 38.22,26.09 38.23,26.11C38.36,26.05 38.49,26 38.62,25.94C40.39,25.12 42.17,24.31 43.94,23.49C44.25,23.35 44.56,23.25 44.89,23.24C45.25,23.23 45.61,23.19 45.97,23.18C46.11,23.18 46.26,23.23 46.38,23.3C46.52,23.37 46.55,23.52 46.46,23.67C46.1,24.27 45.75,24.88 45.27,25.4C44.82,25.9 44.4,26.42 43.97,26.94C43.77,27.17 43.56,27.39 43.37,27.62C43.31,27.69 43.27,27.77 43.19,27.89C43.3,27.86 43.35,27.85 43.4,27.83C44.61,27.41 45.82,26.99 47.03,26.56C47.14,26.53 47.19,26.47 47.22,26.35C47.54,25.05 48.25,23.97 49.17,23.01C49.65,22.51 50.14,22.05 50.69,21.64C51.46,21.06 52.29,20.61 53.23,20.35C53.83,20.18 54.43,20.2 55.04,20.23C55.39,20.24 55.74,20.24 56.08,20.28C56.82,20.36 57.45,20.65 57.88,21.28C58.25,21.83 58.38,22.45 58.19,23.11C58.1,23.41 57.97,23.7 57.84,23.99C57.82,24.04 57.75,24.09 57.69,24.11C57,24.31 56.3,24.49 55.6,24.7C54.28,25.11 52.97,25.53 51.66,25.95C50.94,26.17 50.23,26.41 49.52,26.64C49.24,26.73 49.24,26.73 49.24,27.01C49.25,27.51 49.45,27.93 49.77,28.3C50.29,28.9 50.99,29.13 51.73,29.32C52.48,29.53 53.19,29.36 53.9,29.15C55.18,28.76 56.37,28.18 57.5,27.48C58.43,26.9 59.26,26.21 60.01,25.42C60.02,25.4 60.04,25.38 60.06,25.36C60.27,25.14 60.34,24.93 60.2,24.6C59.86,23.77 59.93,22.92 60.17,22.07C60.43,21.12 60.95,20.3 61.54,19.52C62.63,18.09 63.9,16.85 65.3,15.72C66.21,15 67.18,14.36 68.18,13.79C69.18,13.21 70.24,12.78 71.32,12.39C72.29,12.04 73.29,11.77 74.3,11.59C75.01,11.46 75.73,11.39 76.44,11.32C76.97,11.27 77.5,11.26 78.02,11.27C78.52,11.28 79.03,11.33 79.53,11.39C80.28,11.48 81.04,11.58 81.79,11.7C82.5,11.82 83.16,12.1 83.77,12.47C84.67,13.02 85.4,13.75 85.96,14.65C86.6,15.7 86.87,16.87 86.98,18.08C87.04,18.8 87.07,19.52 86.98,20.24C86.9,20.91 86.85,21.59 86.72,22.25C86.6,22.84 86.39,23.41 86.21,23.99C86.13,24.24 86.02,24.49 85.9,24.78C86.03,24.73 86.14,24.69 86.24,24.65C86.72,24.43 87.2,24.22 87.68,23.99C88.06,23.81 88.43,23.61 88.8,23.41C89.05,23.27 89.29,23.08 89.56,22.97C89.77,22.89 90.01,22.85 90.24,22.84C90.68,22.82 91.12,22.83 91.55,22.83C91.85,22.82 91.96,22.98 91.84,23.25C91.72,23.55 91.57,23.83 91.43,24.11C91.11,24.74 90.73,25.33 90.26,25.86C90.18,25.95 90.12,26.06 90.05,26.16C90.06,26.17 90.07,26.18 90.09,26.19C90.13,26.17 90.18,26.16 90.23,26.14C92.1,25.32 93.98,24.5 95.84,23.66C96.33,23.44 96.83,23.36 97.36,23.34C97.59,23.33 97.81,23.32 98.04,23.31C98.13,23.31 98.22,23.32 98.31,23.35C98.54,23.45 98.59,23.62 98.45,23.84C97.97,24.61 97.38,25.3 96.76,25.96C96.42,26.32 96.11,26.7 95.78,27.06C95.6,27.26 95.41,27.44 95.22,27.63C95.23,27.64 95.24,27.66 95.25,27.67C95.28,27.67 95.31,27.67 95.34,27.66C95.85,27.49 96.35,27.31 96.86,27.15C97.55,26.92 98.24,26.7 98.93,26.48C99.05,26.45 99.11,26.39 99.14,26.27C99.38,25.43 99.84,24.72 100.39,24.07C101.15,23.18 102.02,22.41 102.99,21.78C103.84,21.22 104.74,20.79 105.73,20.53C106.36,20.38 106.98,20.39 107.62,20.42C107.97,20.43 108.31,20.43 108.66,20.47C109.38,20.55 109.98,20.85 110.35,21.5C110.53,21.8 110.53,22.13 110.54,22.46C110.55,22.95 110.33,23.36 110.13,23.79C109.98,24.12 109.74,24.25 109.39,24.34C108.27,24.62 107.15,24.94 106.05,25.27C104.66,25.7 103.28,26.15 101.9,26.59C101.69,26.66 101.48,26.72 101.26,26.78C101.15,26.81 101.1,26.86 101.08,26.99C101.02,27.54 101.22,28 101.57,28.41C102.09,29.02 102.81,29.24 103.55,29.43C104.27,29.61 104.96,29.45 105.65,29.24C106.97,28.86 108.2,28.27 109.35,27.55C109.95,27.17 110.51,26.73 111.09,26.32C111.18,26.25 111.28,26.18 111.39,26.14C111.75,26 112.11,25.85 112.48,25.73C112.92,25.58 113.38,25.61 113.83,25.67C113.99,25.7 114.05,25.83 113.94,25.97C113.77,26.18 113.6,26.39 113.38,26.55C112.77,27.01 112.13,27.45 111.5,27.89C111.36,27.99 111.2,28.05 111.06,28.13C110.6,28.38 110.15,28.64 109.68,28.87C108.69,29.35 107.67,29.75 106.58,29.93C105.86,30.05 105.14,30.09 104.41,30.05C103.74,30.02 103.07,30 102.4,29.92C101.62,29.82 100.87,29.62 100.2,29.18C99.67,28.82 99.3,28.35 99.12,27.73C99.09,27.64 99.07,27.57 99.04,27.46C98.86,27.51 98.69,27.56 98.52,27.61C97.05,28.02 95.57,28.43 94.1,28.84C93.74,28.94 93.38,29.04 93.02,29.13C92.87,29.16 92.72,29.17 92.56,29.15C92.37,29.14 92.22,28.74 92.34,28.58C92.76,28.06 93.17,27.53 93.59,27.02C94.08,26.43 94.59,25.85 95.09,25.27C95.15,25.2 95.2,25.13 95.25,25.06C95.24,25.05 95.23,25.03 95.22,25.02C95.11,25.07 94.98,25.12 94.87,25.17C93.86,25.69 92.82,26.11 91.78,26.54C90.98,26.87 90.2,27.28 89.45,27.72C88.89,28.04 88.31,28.29 87.67,28.4C87.39,28.45 87.1,28.51 86.83,28.59C86.56,28.67 86.48,28.47 86.36,28.32C86.24,28.18 86.26,28.04 86.36,27.89C86.73,27.41 87.1,26.93 87.45,26.44C87.74,26.05 88.02,25.65 88.31,25.23C88.25,25.26 88.2,25.27 88.17,25.29C87.25,25.76 86.29,26.16 85.31,26.49C85.15,26.55 84.98,26.6 84.83,26.67C84.76,26.7 84.71,26.76 84.66,26.82C84.45,27.04 84.24,27.26 84.03,27.48C83.86,27.66 83.7,27.85 83.53,28.03C83.33,28.24 83.13,28.46 82.92,28.66C82.5,29.03 82.11,29.42 81.63,29.72C81.43,29.84 81.26,30.02 81.06,30.16C80.81,30.34 80.54,30.51 80.28,30.68C80.02,30.84 79.77,31.02 79.5,31.17C79.17,31.35 78.82,31.52 78.48,31.69C78.3,31.79 78.11,31.89 77.93,31.97C77.4,32.2 76.86,32.42 76.34,32.67C75.42,33.1 74.45,33.37 73.48,33.63C72.58,33.87 71.66,33.99 70.73,34.06C69.33,34.17 67.93,34.12 66.54,33.99C65.5,33.88 64.46,33.77 63.48,33.38C62.47,32.99 61.64,32.36 60.98,31.5C60.64,31.05 60.31,30.6 60.09,30.07C59.83,29.46 59.67,28.83 59.63,28.17C59.63,28.14 59.63,28.11 59.63,28.08C59.61,28.01 59.59,27.94 59.57,27.86C59.5,27.89 59.43,27.92 59.37,27.95C58.83,28.25 58.3,28.57 57.75,28.84C57.18,29.11 56.58,29.34 55.98,29.55C55,29.89 53.97,30 52.93,29.96C52.18,29.94 51.43,29.92 50.69,29.83C49.81,29.73 48.97,29.51 48.25,28.96C47.73,28.56 47.4,28.05 47.25,27.42C47.24,27.38 47.22,27.34 47.21,27.3C47.2,27.28 47.19,27.26 47.18,27.22C46.91,27.3 46.64,27.37 46.37,27.46C45.69,27.67 45,27.89 44.31,28.1C43.62,28.32 42.91,28.52 42.22,28.73C41.94,28.82 41.67,28.95 41.39,29.05C41.31,29.09 41.21,29.11 41.12,29.14C40.9,29.22 40.75,29.13 40.62,28.96C40.41,28.69 40.41,28.65 40.62,28.39C41.48,27.3 42.34,26.22 43.21,25.13C43.25,25.08 43.29,25.01 43.33,24.95Z"/>
	<path class="st1" d="M42.5,47.56C42.5,47.57 42.5,47.67 42.48,47.75C42.44,47.98 42.32,48.05 42.23,48.09C42.12,48.13 42.01,48.13 41.98,48.13C41.86,48.13 41.75,48.11 41.65,48.03C41.63,48.01 41.58,47.97 41.55,47.92C41.46,47.79 41.45,47.63 41.45,47.32L41.45,46.97C41.45,46.84 41.45,46.72 41.45,46.6C41.46,46.43 41.46,46.19 41.57,46.04C41.67,45.91 41.85,45.86 42,45.86C42.2,45.86 42.31,45.94 42.37,46C42.46,46.09 42.49,46.2 42.49,46.44C42.49,46.49 42.49,46.54 42.48,46.59L42.23,46.59C42.23,46.51 42.23,46.43 42.23,46.34C42.23,46.25 42.22,46.19 42.14,46.13C42.12,46.11 42.08,46.09 42,46.09C41.94,46.09 41.79,46.1 41.75,46.28C41.73,46.41 41.72,46.68 41.72,47.01C41.72,47.17 41.73,47.33 41.73,47.5C41.73,47.59 41.73,47.7 41.78,47.79C41.84,47.89 41.97,47.9 42,47.9C42.02,47.9 42.08,47.9 42.14,47.85C42.25,47.77 42.24,47.6 42.24,47.48L42.24,47.32L42.5,47.32C42.5,47.4 42.5,47.48 42.5,47.56"/>
	<path class="st1" d="M46.35,46.3L46.15,47.43L46.56,47.43ZM46.69,48.09L46.61,47.67L46.1,47.67L46.02,48.09L45.74,48.09L46.21,45.89L46.49,45.89L46.97,48.09Z"/>
	<path class="st1" d="M50.7,46.14L50.7,48.1L50.42,48.1L50.42,46.14L50.01,46.14L50.01,45.89L51.11,45.89L51.11,46.14Z"/>
	<path class="st1" d="M54.42,48.1L54.42,45.89L55.39,45.89L55.39,46.14L54.7,46.14L54.7,46.79L55.31,46.79L55.31,47.04L54.7,47.04L54.7,47.85L55.42,47.85L55.42,48.1Z"/>
	<path class="st1" d="M59.55,46.29C59.49,46.13 59.32,46.14 59.19,46.14L59.05,46.14L59.05,46.91L59.2,46.91C59.32,46.91 59.38,46.91 59.44,46.89C59.58,46.83 59.57,46.64 59.57,46.52C59.57,46.45 59.57,46.36 59.55,46.29M59.66,48.1L59.28,47.13L59.05,47.13L59.05,48.1L58.78,48.1L58.78,45.89L59.26,45.89C59.4,45.89 59.56,45.9 59.68,46C59.86,46.14 59.85,46.43 59.85,46.48C59.85,46.57 59.84,46.66 59.82,46.75C59.8,46.88 59.77,46.94 59.73,46.98C59.67,47.07 59.58,47.09 59.55,47.1L59.94,48.1Z"/>
	<path class="st1" d="M63.54 -2.23L63.27 -2.23L63.27 -0.03L63.54 -0.03Z"/>
	<path class="st1" d="M67.64,48.1L67.21,46.19L67.25,48.1L66.98,48.1L66.98,45.89L67.36,45.89L67.8,47.82L67.76,45.89L68.03,45.89L68.03,48.1Z"/>
	<path class="st1" d="M72.31,48.1L72.31,47.94C72.28,47.98 72.26,48 72.22,48.02C72.18,48.06 72.06,48.13 71.91,48.13C71.81,48.13 71.57,48.1 71.49,47.82C71.45,47.7 71.45,47.6 71.45,47.35C71.45,47.23 71.45,47.12 71.45,47C71.45,46.84 71.45,46.69 71.46,46.53C71.46,46.52 71.46,46.31 71.49,46.19C71.59,45.85 71.91,45.86 72.01,45.86C72.18,45.86 72.29,45.9 72.36,45.94C72.39,45.97 72.42,45.99 72.43,46.01C72.46,46.05 72.49,46.09 72.5,46.15C72.52,46.21 72.52,46.27 72.52,46.41L72.52,46.57L72.26,46.57L72.26,46.46C72.26,46.42 72.26,46.38 72.26,46.34C72.26,46.25 72.25,46.09 72.01,46.09C71.98,46.09 71.91,46.09 71.84,46.14C71.81,46.15 71.79,46.17 71.79,46.19C71.78,46.2 71.76,46.23 71.75,46.27C71.73,46.38 71.72,46.61 71.72,46.9L71.72,47.16C71.72,47.29 71.72,47.41 71.73,47.53C71.73,47.66 71.73,47.72 71.76,47.77C71.8,47.86 71.89,47.9 71.98,47.9C72.02,47.9 72.1,47.9 72.18,47.83C72.2,47.82 72.23,47.78 72.25,47.73C72.28,47.68 72.29,47.57 72.29,47.42L72.29,47.19L71.96,47.19L71.96,46.96L72.54,46.96L72.54,48.1Z"/>
	<path class="st1" d="M61.36,0.82L61.36,0.44C61.36,0.24 61.41,0.07 61.63,0.03L61.63,0.19C61.5,0.22 61.51,0.35 61.51,0.45L61.63,0.45L61.63,0.82ZM63.93,2.17C63.8,2.26 63.64,2.26 63.59,2.26C63.51,2.26 63.2,2.26 63.09,1.96C63.06,1.88 63.06,1.8 63.06,1.72L63.06,1.47L63.32,1.47L63.32,1.58C63.32,1.73 63.32,1.8 63.34,1.87C63.37,1.93 63.43,2.03 63.59,2.03C63.7,2.03 63.8,1.98 63.84,1.89C63.87,1.83 63.87,1.78 63.87,1.76C63.87,1.57 63.78,1.49 63.66,1.37L63.37,1.06C63.19,0.88 63.11,0.76 63.11,0.51C63.11,0.48 63.11,0.39 63.14,0.3C63.18,0.15 63.3,0 63.62,0C63.7,0 64,0 64.07,0.28C64.09,0.36 64.09,0.46 64.09,0.54L64.09,0.68L63.84,0.68C63.84,0.54 63.84,0.58 63.84,0.5C63.84,0.4 63.83,0.3 63.72,0.25C63.67,0.23 63.63,0.23 63.61,0.23C63.54,0.23 63.49,0.25 63.44,0.29C63.42,0.31 63.41,0.34 63.4,0.35C63.39,0.38 63.38,0.42 63.38,0.49C63.38,0.51 63.38,0.57 63.4,0.62C63.43,0.73 63.52,0.81 63.6,0.89L63.94,1.26C63.97,1.28 63.99,1.31 64.01,1.34C64.06,1.41 64.13,1.52 64.13,1.73C64.13,2 64.03,2.11 63.93,2.17M59.73,1.69C59.73,1.71 59.73,1.81 59.72,1.88C59.68,2.12 59.56,2.19 59.46,2.23C59.36,2.26 59.25,2.26 59.22,2.26C59.09,2.26 58.99,2.25 58.88,2.17C58.86,2.15 58.82,2.11 58.78,2.05C58.7,1.93 58.69,1.76 58.69,1.46L58.69,1.11C58.69,0.98 58.69,0.86 58.69,0.73C58.69,0.57 58.69,0.33 58.81,0.18C58.9,0.05 59.09,0 59.24,0C59.44,0 59.55,0.08 59.61,0.14C59.69,0.22 59.72,0.34 59.72,0.58C59.72,0.63 59.72,0.68 59.72,0.72L59.47,0.72C59.47,0.64 59.47,0.56 59.47,0.48C59.46,0.39 59.46,0.33 59.38,0.27C59.36,0.25 59.31,0.23 59.24,0.23C59.17,0.23 59.03,0.24 58.99,0.42C58.96,0.54 58.96,0.81 58.96,1.14C58.96,1.31 58.96,1.47 58.97,1.64C58.97,1.72 58.97,1.84 59.01,1.92C59.07,2.03 59.2,2.03 59.23,2.03C59.26,2.03 59.32,2.03 59.38,1.99C59.48,1.91 59.48,1.73 59.48,1.62L59.48,1.46L59.74,1.46C59.74,1.54 59.74,1.61 59.73,1.69M54.94,1.34L54.94,2.23L54.66,2.23L54.66,1.34L54.19,0.03L54.48,0.03L54.81,1.13L55.14,0.03L55.43,0.03ZM50.52,2.23L50.09,0.32L50.13,2.23L49.86,2.23L49.86,0.03L50.24,0.03L50.68,1.96L50.65,0.03L50.91,0.03L50.91,2.23Z"/>
</svg>